<svg width="1600" height="900" viewBox="0 0 1600 900" xmlns="http://www.w3.org/2000/svg" role="img" aria-label="Sorter rebuild hero">
  <defs>
    <linearGradient id="bg" x1="0" x2="1" y1="0" y2="1">
      <stop offset="0%" stop-color="#0f1b32"/>
      <stop offset="100%" stop-color="#152845"/>
    </linearGradient>
    <linearGradient id="grid" x1="0" x2="0" y1="0" y2="1">
      <stop offset="0%" stop-color="#48e0c9" stop-opacity="0.35"/>
      <stop offset="100%" stop-color="#7fc8ff" stop-opacity="0.15"/>
    </linearGradient>
  </defs>
  <rect width="1600" height="900" fill="url(#bg)"/>
  <g opacity="0.5">
    <path d="M120 780 Q200 620 420 610 L620 600 Q760 590 860 530 L1100 450 Q1260 390 1480 380" stroke="#48e0c9" stroke-width="26" stroke-linecap="round" fill="none" stroke-opacity="0.35"/>
    <path d="M140 720 Q220 540 480 520 L720 500 Q860 480 980 430 L1240 350 Q1380 300 1520 310" stroke="#7fc8ff" stroke-width="18" stroke-linecap="round" fill="none" stroke-opacity="0.35"/>
  </g>
  <g opacity="0.16">
    <rect x="150" y="140" width="1100" height="620" fill="url(#grid)" rx="28"/>
    <path d="M150 220 H1250 M150 340 H1250 M150 460 H1250 M150 580 H1250 M150 700 H1250" stroke="#b8d9ff" stroke-opacity="0.2" stroke-width="2"/>
    <path d="M340 140 V760 M620 140 V760 M900 140 V760 M1180 140 V760" stroke="#b8d9ff" stroke-opacity="0.2" stroke-width="2"/>
  </g>
  <g fill="#bfeffc" fill-opacity="0.6">
    <circle cx="320" cy="260" r="12"/>
    <circle cx="560" cy="210" r="10"/>
    <circle cx="880" cy="260" r="12"/>
    <circle cx="1090" cy="320" r="9"/>
    <circle cx="1360" cy="420" r="11"/>
  </g>
  <g fill="#48e0c9" fill-opacity="0.9">
    <rect x="320" y="260" width="120" height="280" rx="10" opacity="0.7"/>
    <rect x="520" y="210" width="140" height="330" rx="10" opacity="0.6"/>
    <rect x="760" y="260" width="140" height="310" rx="10" opacity="0.55"/>
    <rect x="1000" y="320" width="130" height="250" rx="10" opacity="0.5"/>
    <rect x="1240" y="420" width="160" height="220" rx="10" opacity="0.6"/>
  </g>
  <text x="170" y="170" fill="#e6f4ff" font-family="Inter, 'Segoe UI', system-ui, sans-serif" font-size="56" font-weight="800">Sorter Rebuilds</text>
  <text x="170" y="240" fill="#a8c7e8" font-family="Inter, 'Segoe UI', system-ui, sans-serif" font-size="26" font-weight="600">Critical assets protected, rebuilt, and extended</text>
</svg>
